<svg xmlns="http://www.w3.org/2000/svg" width="2048" height="1152" viewBox="-854 0 2731 1536">
    <path d="M 222 160 L 221 161 L 220 161 L 218 163 L 217 163 L 213 167 L 212 167 L 196 183 L 196 184 L 192 188 L 192 189 L 189 192 L 189 193 L 186 196 L 186 197 L 184 199 L 184 200 L 182 202 L 182 203 L 180 205 L 180 206 L 179 207 L 179 208 L 177 210 L 177 211 L 176 212 L 176 213 L 175 214 L 175 215 L 174 216 L 174 217 L 173 218 L 173 219 L 171 221 L 171 223 L 170 224 L 170 225 L 169 226 L 169 227 L 168 228 L 168 229 L 167 230 L 167 231 L 166 232 L 166 233 L 165 234 L 165 235 L 164 236 L 164 238 L 163 239 L 163 240 L 162 241 L 162 243 L 161 244 L 161 245 L 160 246 L 160 248 L 159 249 L 159 251 L 158 252 L 158 254 L 157 255 L 157 257 L 156 258 L 156 260 L 155 261 L 155 263 L 154 264 L 154 266 L 153 267 L 153 270 L 152 271 L 152 273 L 151 274 L 151 277 L 150 278 L 150 281 L 149 282 L 149 286 L 148 287 L 148 291 L 147 292 L 147 296 L 146 297 L 146 302 L 145 303 L 145 309 L 144 310 L 144 319 L 143 320 L 143 334 L 142 335 L 142 355 L 143 356 L 143 370 L 144 371 L 144 379 L 145 380 L 145 386 L 146 387 L 146 392 L 147 393 L 147 397 L 148 398 L 148 402 L 149 403 L 149 406 L 150 407 L 150 410 L 151 411 L 151 413 L 152 414 L 152 417 L 153 418 L 153 420 L 154 421 L 154 423 L 155 424 L 155 426 L 156 427 L 156 429 L 157 430 L 157 431 L 158 432 L 158 434 L 159 435 L 159 436 L 160 437 L 160 439 L 161 440 L 161 441 L 162 442 L 162 443 L 163 444 L 163 445 L 164 446 L 164 447 L 165 448 L 165 449 L 166 450 L 166 451 L 167 452 L 167 453 L 168 454 L 168 455 L 169 456 L 169 457 L 171 459 L 171 460 L 172 461 L 172 462 L 173 463 L 173 464 L 175 466 L 175 467 L 177 469 L 177 470 L 179 472 L 179 473 L 181 475 L 181 476 L 183 478 L 183 479 L 186 482 L 186 483 L 190 487 L 190 488 L 195 493 L 195 494 L 217 516 L 218 516 L 224 522 L 225 522 L 229 526 L 230 526 L 233 529 L 234 529 L 237 532 L 238 532 L 241 535 L 242 535 L 244 537 L 245 537 L 247 539 L 248 539 L 250 541 L 251 541 L 253 543 L 254 543 L 255 544 L 256 544 L 258 546 L 259 546 L 261 548 L 262 548 L 263 549 L 264 549 L 266 551 L 267 551 L 268 552 L 269 552 L 271 554 L 272 554 L 273 555 L 274 555 L 275 556 L 276 556 L 278 558 L 279 558 L 280 559 L 281 559 L 282 560 L 283 560 L 284 561 L 285 561 L 287 563 L 288 563 L 289 564 L 290 564 L 291 565 L 292 565 L 293 566 L 294 566 L 295 567 L 296 567 L 297 568 L 298 568 L 299 569 L 300 569 L 301 570 L 302 570 L 303 571 L 304 571 L 305 572 L 306 572 L 308 574 L 309 574 L 310 575 L 311 575 L 312 576 L 313 576 L 314 577 L 315 577 L 316 578 L 317 578 L 318 579 L 319 579 L 320 580 L 321 580 L 322 581 L 323 581 L 325 583 L 326 583 L 327 584 L 328 584 L 329 585 L 330 585 L 332 587 L 333 587 L 334 588 L 335 588 L 337 590 L 338 590 L 339 591 L 340 591 L 342 593 L 343 593 L 345 595 L 346 595 L 348 597 L 349 597 L 351 599 L 352 599 L 354 601 L 355 601 L 358 604 L 359 604 L 364 609 L 365 609 L 381 625 L 381 626 L 385 630 L 385 631 L 387 633 L 387 634 L 389 636 L 389 637 L 390 638 L 390 639 L 392 641 L 392 642 L 393 643 L 393 644 L 394 645 L 394 647 L 395 648 L 395 649 L 396 650 L 396 654 L 397 655 L 397 659 L 396 660 L 396 663 L 394 665 L 394 666 L 392 668 L 391 668 L 390 669 L 379 669 L 378 668 L 376 668 L 375 667 L 374 667 L 373 666 L 372 666 L 371 665 L 370 665 L 368 663 L 367 663 L 365 661 L 364 661 L 347 644 L 347 643 L 328 624 L 327 624 L 324 621 L 323 621 L 321 619 L 320 619 L 318 617 L 317 617 L 315 615 L 314 615 L 313 614 L 312 614 L 311 613 L 310 613 L 309 612 L 308 612 L 307 611 L 306 611 L 305 610 L 304 610 L 303 609 L 302 609 L 301 608 L 299 608 L 298 607 L 297 607 L 296 606 L 294 606 L 293 605 L 291 605 L 290 604 L 288 604 L 287 603 L 285 603 L 284 602 L 281 602 L 280 601 L 278 601 L 277 600 L 274 600 L 273 599 L 269 599 L 268 598 L 265 598 L 264 597 L 260 597 L 259 596 L 254 596 L 253 595 L 248 595 L 247 594 L 242 594 L 241 593 L 235 593 L 234 592 L 229 592 L 228 591 L 221 591 L 220 590 L 212 590 L 211 589 L 204 589 L 203 588 L 197 588 L 196 589 L 194 589 L 193 590 L 192 590 L 191 591 L 191 592 L 190 593 L 190 595 L 189 596 L 189 599 L 190 600 L 190 603 L 191 604 L 191 605 L 192 606 L 192 608 L 193 609 L 193 611 L 194 612 L 194 614 L 195 615 L 195 617 L 196 618 L 196 620 L 197 621 L 197 623 L 198 624 L 198 626 L 199 627 L 199 629 L 200 630 L 200 631 L 201 632 L 201 634 L 202 635 L 202 637 L 203 638 L 203 640 L 204 641 L 204 642 L 205 643 L 205 645 L 206 646 L 206 648 L 207 649 L 207 650 L 208 651 L 208 653 L 209 654 L 209 655 L 210 656 L 210 657 L 211 658 L 211 660 L 212 661 L 212 662 L 213 663 L 213 664 L 214 665 L 214 667 L 215 668 L 215 669 L 216 670 L 216 671 L 217 672 L 217 673 L 218 674 L 218 675 L 219 676 L 219 677 L 220 678 L 220 679 L 221 680 L 221 681 L 223 683 L 223 684 L 224 685 L 224 686 L 225 687 L 225 688 L 227 690 L 227 691 L 228 692 L 228 693 L 230 695 L 230 696 L 232 698 L 232 699 L 235 702 L 235 703 L 239 707 L 239 708 L 250 719 L 251 719 L 254 722 L 255 722 L 257 724 L 258 724 L 260 726 L 261 726 L 263 728 L 264 728 L 265 729 L 266 729 L 267 730 L 268 730 L 269 731 L 270 731 L 271 732 L 272 732 L 273 733 L 274 733 L 275 734 L 276 734 L 277 735 L 279 735 L 280 736 L 282 736 L 283 737 L 284 737 L 285 738 L 287 738 L 288 739 L 291 739 L 292 740 L 294 740 L 295 741 L 298 741 L 299 742 L 304 742 L 305 743 L 311 743 L 312 744 L 349 744 L 350 745 L 352 745 L 353 746 L 354 746 L 355 747 L 356 747 L 364 755 L 364 756 L 365 757 L 365 758 L 366 759 L 366 760 L 367 761 L 367 763 L 368 764 L 368 770 L 369 771 L 369 783 L 370 784 L 370 806 L 371 807 L 371 817 L 372 818 L 372 824 L 373 825 L 373 829 L 374 830 L 374 834 L 375 835 L 375 839 L 376 840 L 376 843 L 377 844 L 377 847 L 378 848 L 378 850 L 379 851 L 379 863 L 378 864 L 378 868 L 377 869 L 377 872 L 376 873 L 376 876 L 375 877 L 375 880 L 374 881 L 374 884 L 373 885 L 373 888 L 372 889 L 372 892 L 371 893 L 371 896 L 370 897 L 370 901 L 369 902 L 369 905 L 368 906 L 368 909 L 367 910 L 367 914 L 366 915 L 366 919 L 365 920 L 365 923 L 364 924 L 364 928 L 363 929 L 363 932 L 362 933 L 362 937 L 361 938 L 361 941 L 360 942 L 360 945 L 359 946 L 359 950 L 358 951 L 358 954 L 357 955 L 357 958 L 356 959 L 356 962 L 355 963 L 355 966 L 354 967 L 354 969 L 353 970 L 353 973 L 352 974 L 352 976 L 351 977 L 351 980 L 350 981 L 350 983 L 349 984 L 349 987 L 348 988 L 348 990 L 347 991 L 347 993 L 346 994 L 346 997 L 345 998 L 345 1000 L 344 1001 L 344 1003 L 343 1004 L 343 1006 L 342 1007 L 342 1009 L 341 1010 L 341 1012 L 340 1013 L 340 1015 L 339 1016 L 339 1017 L 338 1018 L 338 1020 L 337 1021 L 337 1023 L 336 1024 L 336 1026 L 335 1027 L 335 1029 L 334 1030 L 334 1031 L 333 1032 L 333 1034 L 332 1035 L 332 1037 L 331 1038 L 331 1040 L 330 1041 L 330 1043 L 329 1044 L 329 1046 L 328 1047 L 328 1050 L 327 1051 L 327 1053 L 326 1054 L 326 1057 L 325 1058 L 325 1062 L 324 1063 L 324 1066 L 323 1067 L 323 1071 L 322 1072 L 322 1076 L 321 1077 L 321 1083 L 320 1084 L 320 1093 L 319 1094 L 319 1095 L 320 1096 L 320 1100 L 321 1100 L 322 1101 L 323 1101 L 326 1098 L 326 1097 L 327 1096 L 327 1095 L 328 1094 L 328 1093 L 330 1091 L 332 1093 L 332 1104 L 331 1105 L 331 1122 L 332 1123 L 332 1134 L 333 1135 L 333 1144 L 334 1145 L 334 1152 L 335 1153 L 335 1158 L 336 1159 L 336 1163 L 337 1164 L 337 1167 L 338 1168 L 338 1170 L 339 1171 L 339 1173 L 340 1174 L 340 1176 L 341 1177 L 341 1179 L 342 1180 L 342 1181 L 343 1182 L 343 1183 L 344 1184 L 344 1186 L 345 1187 L 345 1188 L 346 1189 L 346 1190 L 347 1191 L 347 1192 L 349 1194 L 349 1195 L 350 1196 L 350 1197 L 352 1199 L 352 1200 L 354 1202 L 354 1203 L 359 1208 L 363 1208 L 365 1206 L 365 1205 L 366 1204 L 366 1202 L 367 1201 L 367 1198 L 368 1197 L 368 1196 L 369 1195 L 372 1198 L 372 1200 L 373 1201 L 373 1202 L 374 1203 L 374 1204 L 375 1205 L 375 1206 L 376 1207 L 376 1208 L 377 1209 L 377 1210 L 378 1211 L 378 1212 L 379 1213 L 379 1214 L 380 1215 L 380 1216 L 381 1217 L 381 1218 L 382 1219 L 382 1220 L 383 1221 L 383 1222 L 384 1223 L 384 1224 L 386 1226 L 386 1227 L 387 1228 L 387 1229 L 389 1231 L 389 1232 L 391 1234 L 391 1235 L 393 1237 L 393 1238 L 395 1240 L 395 1241 L 397 1243 L 397 1244 L 401 1248 L 401 1249 L 420 1268 L 421 1268 L 425 1272 L 426 1272 L 428 1274 L 429 1274 L 431 1276 L 432 1276 L 433 1277 L 434 1277 L 435 1278 L 436 1278 L 437 1277 L 438 1277 L 438 1276 L 439 1275 L 439 1272 L 441 1270 L 442 1270 L 446 1274 L 446 1275 L 454 1283 L 454 1284 L 476 1306 L 477 1306 L 484 1313 L 485 1313 L 490 1318 L 491 1318 L 495 1322 L 496 1322 L 498 1324 L 499 1324 L 502 1327 L 503 1327 L 504 1328 L 505 1328 L 506 1329 L 507 1329 L 508 1330 L 514 1330 L 515 1329 L 516 1329 L 517 1328 L 518 1328 L 519 1327 L 520 1327 L 522 1325 L 523 1325 L 526 1322 L 527 1322 L 530 1319 L 531 1319 L 536 1314 L 537 1314 L 545 1306 L 546 1306 L 575 1277 L 575 1276 L 581 1270 L 582 1270 L 583 1271 L 583 1272 L 584 1273 L 584 1276 L 585 1277 L 586 1277 L 587 1278 L 589 1278 L 590 1277 L 591 1277 L 593 1275 L 594 1275 L 595 1274 L 596 1274 L 600 1270 L 601 1270 L 609 1262 L 610 1262 L 615 1257 L 615 1256 L 623 1248 L 623 1247 L 627 1243 L 627 1242 L 629 1240 L 629 1239 L 632 1236 L 632 1235 L 634 1233 L 634 1232 L 636 1230 L 636 1229 L 637 1228 L 637 1227 L 639 1225 L 639 1224 L 640 1223 L 640 1222 L 641 1221 L 641 1220 L 642 1219 L 642 1218 L 643 1217 L 643 1216 L 644 1215 L 644 1214 L 645 1213 L 645 1212 L 646 1211 L 646 1210 L 647 1209 L 647 1208 L 648 1207 L 648 1206 L 649 1205 L 649 1203 L 650 1202 L 650 1201 L 651 1200 L 651 1199 L 652 1198 L 652 1196 L 653 1195 L 654 1195 L 656 1197 L 656 1201 L 657 1202 L 657 1204 L 658 1205 L 658 1206 L 660 1208 L 663 1208 L 664 1207 L 665 1207 L 665 1206 L 669 1202 L 669 1201 L 671 1199 L 671 1198 L 673 1196 L 673 1195 L 674 1194 L 674 1193 L 675 1192 L 675 1191 L 677 1189 L 677 1188 L 678 1187 L 678 1185 L 679 1184 L 679 1183 L 680 1182 L 680 1180 L 681 1179 L 681 1178 L 682 1177 L 682 1175 L 683 1174 L 683 1172 L 684 1171 L 684 1168 L 685 1167 L 685 1165 L 686 1164 L 686 1161 L 687 1160 L 687 1156 L 688 1155 L 688 1150 L 689 1149 L 689 1143 L 690 1142 L 690 1133 L 691 1132 L 691 1118 L 692 1117 L 692 1110 L 691 1109 L 691 1093 L 692 1092 L 693 1092 L 695 1094 L 695 1095 L 696 1096 L 696 1097 L 698 1099 L 698 1100 L 699 1101 L 701 1101 L 702 1100 L 702 1098 L 703 1097 L 703 1089 L 702 1088 L 702 1082 L 701 1081 L 701 1076 L 700 1075 L 700 1071 L 699 1070 L 699 1067 L 698 1066 L 698 1062 L 697 1061 L 697 1058 L 696 1057 L 696 1054 L 695 1053 L 695 1051 L 694 1050 L 694 1047 L 693 1046 L 693 1044 L 692 1043 L 692 1041 L 691 1040 L 691 1037 L 690 1036 L 690 1034 L 689 1033 L 689 1031 L 688 1030 L 688 1029 L 687 1028 L 687 1026 L 686 1025 L 686 1023 L 685 1022 L 685 1020 L 684 1019 L 684 1017 L 683 1016 L 683 1015 L 682 1014 L 682 1012 L 681 1011 L 681 1009 L 680 1008 L 680 1006 L 679 1005 L 679 1002 L 678 1001 L 678 999 L 677 998 L 677 995 L 676 994 L 676 992 L 675 991 L 675 988 L 674 987 L 674 984 L 673 983 L 673 981 L 672 980 L 672 977 L 671 976 L 671 973 L 670 972 L 670 969 L 669 968 L 669 966 L 668 965 L 668 961 L 667 960 L 667 957 L 666 956 L 666 953 L 665 952 L 665 949 L 664 948 L 664 945 L 663 944 L 663 941 L 662 940 L 662 936 L 661 935 L 661 932 L 660 931 L 660 928 L 659 927 L 659 923 L 658 922 L 658 919 L 657 918 L 657 915 L 656 914 L 656 910 L 655 909 L 655 905 L 654 904 L 654 901 L 653 900 L 653 896 L 652 895 L 652 892 L 651 891 L 651 888 L 650 887 L 650 883 L 649 882 L 649 879 L 648 878 L 648 874 L 647 873 L 647 870 L 646 869 L 646 865 L 645 864 L 645 860 L 644 859 L 644 851 L 645 850 L 645 848 L 646 847 L 646 844 L 647 843 L 647 840 L 648 839 L 648 836 L 649 835 L 649 832 L 650 831 L 650 826 L 651 825 L 651 820 L 652 819 L 652 813 L 653 812 L 653 798 L 654 797 L 654 778 L 655 777 L 655 767 L 656 766 L 656 763 L 657 762 L 657 760 L 658 759 L 658 758 L 659 757 L 659 756 L 662 753 L 662 752 L 666 748 L 667 748 L 669 746 L 670 746 L 671 745 L 673 745 L 674 744 L 712 744 L 713 743 L 718 743 L 719 742 L 723 742 L 724 741 L 727 741 L 728 740 L 730 740 L 731 739 L 734 739 L 735 738 L 737 738 L 738 737 L 740 737 L 741 736 L 742 736 L 743 735 L 745 735 L 746 734 L 747 734 L 748 733 L 750 733 L 751 732 L 752 732 L 753 731 L 754 731 L 755 730 L 756 730 L 757 729 L 758 729 L 759 728 L 760 728 L 762 726 L 763 726 L 765 724 L 766 724 L 768 722 L 769 722 L 773 718 L 774 718 L 782 710 L 782 709 L 787 704 L 787 703 L 789 701 L 789 700 L 792 697 L 792 696 L 794 694 L 794 693 L 795 692 L 795 691 L 797 689 L 797 688 L 798 687 L 798 686 L 800 684 L 800 683 L 801 682 L 801 681 L 802 680 L 802 679 L 803 678 L 803 677 L 805 675 L 805 674 L 806 673 L 806 671 L 807 670 L 807 669 L 808 668 L 808 667 L 809 666 L 809 665 L 810 664 L 810 663 L 811 662 L 811 661 L 812 660 L 812 658 L 813 657 L 813 656 L 814 655 L 814 653 L 815 652 L 815 651 L 816 650 L 816 649 L 817 648 L 817 646 L 818 645 L 818 643 L 819 642 L 819 641 L 820 640 L 820 638 L 821 637 L 821 635 L 822 634 L 822 632 L 823 631 L 823 629 L 824 628 L 824 627 L 825 626 L 825 624 L 826 623 L 826 621 L 827 620 L 827 618 L 828 617 L 828 615 L 829 614 L 829 612 L 830 611 L 830 609 L 831 608 L 831 606 L 832 605 L 832 603 L 833 602 L 833 599 L 834 598 L 834 596 L 833 595 L 833 593 L 830 590 L 829 590 L 828 589 L 812 589 L 811 590 L 803 590 L 802 591 L 797 591 L 796 592 L 790 592 L 789 593 L 785 593 L 784 594 L 780 594 L 779 595 L 774 595 L 773 596 L 769 596 L 768 597 L 764 597 L 763 598 L 759 598 L 758 599 L 754 599 L 753 600 L 750 600 L 749 601 L 746 601 L 745 602 L 743 602 L 742 603 L 739 603 L 738 604 L 736 604 L 735 605 L 733 605 L 732 606 L 730 606 L 729 607 L 727 607 L 726 608 L 724 608 L 723 609 L 722 609 L 721 610 L 719 610 L 718 611 L 717 611 L 716 612 L 715 612 L 714 613 L 713 613 L 712 614 L 711 614 L 710 615 L 709 615 L 708 616 L 707 616 L 705 618 L 704 618 L 703 619 L 702 619 L 700 621 L 699 621 L 696 624 L 695 624 L 688 631 L 687 631 L 681 637 L 681 638 L 673 646 L 673 647 L 659 661 L 658 661 L 655 664 L 654 664 L 652 666 L 651 666 L 650 667 L 649 667 L 648 668 L 646 668 L 645 669 L 642 669 L 641 670 L 636 670 L 635 669 L 633 669 L 628 664 L 628 662 L 627 661 L 627 652 L 628 651 L 628 648 L 629 647 L 629 645 L 630 644 L 630 642 L 631 641 L 631 640 L 632 639 L 632 638 L 633 637 L 633 636 L 634 635 L 634 634 L 636 632 L 636 631 L 637 630 L 637 629 L 640 626 L 640 625 L 653 612 L 654 612 L 658 608 L 659 608 L 662 605 L 663 605 L 666 602 L 667 602 L 669 600 L 670 600 L 672 598 L 673 598 L 675 596 L 676 596 L 678 594 L 679 594 L 680 593 L 681 593 L 683 591 L 684 591 L 686 589 L 687 589 L 688 588 L 689 588 L 690 587 L 691 587 L 693 585 L 694 585 L 695 584 L 696 584 L 697 583 L 698 583 L 700 581 L 701 581 L 702 580 L 703 580 L 704 579 L 705 579 L 706 578 L 707 578 L 709 576 L 710 576 L 711 575 L 712 575 L 713 574 L 714 574 L 715 573 L 716 573 L 717 572 L 718 572 L 719 571 L 720 571 L 721 570 L 722 570 L 723 569 L 724 569 L 726 567 L 727 567 L 728 566 L 729 566 L 730 565 L 731 565 L 732 564 L 733 564 L 734 563 L 735 563 L 736 562 L 737 562 L 738 561 L 739 561 L 740 560 L 741 560 L 742 559 L 743 559 L 745 557 L 746 557 L 747 556 L 748 556 L 749 555 L 750 555 L 751 554 L 752 554 L 754 552 L 755 552 L 756 551 L 757 551 L 759 549 L 760 549 L 761 548 L 762 548 L 764 546 L 765 546 L 767 544 L 768 544 L 769 543 L 770 543 L 772 541 L 773 541 L 775 539 L 776 539 L 778 537 L 779 537 L 782 534 L 783 534 L 785 532 L 786 532 L 789 529 L 790 529 L 793 526 L 794 526 L 797 523 L 798 523 L 803 518 L 804 518 L 813 509 L 814 509 L 821 502 L 821 501 L 829 493 L 829 492 L 834 487 L 834 486 L 838 482 L 838 481 L 840 479 L 840 478 L 843 475 L 843 474 L 845 472 L 845 471 L 846 470 L 846 469 L 848 467 L 848 466 L 850 464 L 850 463 L 851 462 L 851 461 L 853 459 L 853 458 L 854 457 L 854 456 L 855 455 L 855 454 L 856 453 L 856 452 L 858 450 L 858 449 L 859 448 L 859 447 L 860 446 L 860 444 L 861 443 L 861 442 L 862 441 L 862 440 L 863 439 L 863 438 L 864 437 L 864 436 L 865 435 L 865 433 L 866 432 L 866 431 L 867 430 L 867 428 L 868 427 L 868 425 L 869 424 L 869 422 L 870 421 L 870 419 L 871 418 L 871 415 L 872 414 L 872 411 L 873 410 L 873 407 L 874 406 L 874 402 L 875 401 L 875 397 L 876 396 L 876 390 L 877 389 L 877 384 L 878 383 L 878 377 L 879 376 L 879 368 L 880 367 L 880 356 L 881 355 L 881 322 L 880 321 L 880 311 L 879 310 L 879 303 L 878 302 L 878 297 L 877 296 L 877 291 L 876 290 L 876 286 L 875 285 L 875 281 L 874 280 L 874 277 L 873 276 L 873 273 L 872 272 L 872 270 L 871 269 L 871 266 L 870 265 L 870 263 L 869 262 L 869 260 L 868 259 L 868 257 L 867 256 L 867 254 L 866 253 L 866 251 L 865 250 L 865 248 L 864 247 L 864 245 L 863 244 L 863 243 L 862 242 L 862 240 L 861 239 L 861 237 L 860 236 L 860 235 L 859 234 L 859 233 L 858 232 L 858 230 L 857 229 L 857 228 L 856 227 L 856 226 L 855 225 L 855 224 L 854 223 L 854 222 L 853 221 L 853 220 L 852 219 L 852 218 L 851 217 L 851 216 L 850 215 L 850 214 L 849 213 L 849 212 L 848 211 L 848 210 L 846 208 L 846 207 L 845 206 L 845 205 L 843 203 L 843 202 L 841 200 L 841 199 L 839 197 L 839 196 L 837 194 L 837 193 L 834 190 L 834 189 L 831 186 L 831 185 L 823 177 L 823 176 L 821 174 L 820 174 L 812 166 L 811 166 L 808 163 L 807 163 L 805 161 L 804 161 L 803 160 L 799 160 L 799 167 L 800 168 L 800 169 L 801 170 L 801 171 L 803 173 L 803 174 L 805 176 L 805 177 L 806 178 L 806 179 L 808 181 L 808 182 L 809 183 L 809 184 L 811 186 L 811 187 L 812 188 L 812 189 L 813 190 L 813 191 L 815 193 L 815 194 L 816 195 L 816 196 L 817 197 L 817 198 L 818 199 L 818 200 L 819 201 L 819 202 L 820 203 L 820 204 L 821 205 L 821 206 L 822 207 L 822 209 L 823 210 L 823 211 L 824 212 L 824 213 L 825 214 L 825 215 L 826 216 L 826 218 L 827 219 L 827 220 L 828 221 L 828 223 L 829 224 L 829 226 L 830 227 L 830 229 L 831 230 L 831 232 L 832 233 L 832 234 L 833 235 L 833 238 L 834 239 L 834 241 L 835 242 L 835 244 L 836 245 L 836 248 L 837 249 L 837 251 L 838 252 L 838 255 L 839 256 L 839 260 L 840 261 L 840 264 L 841 265 L 841 270 L 842 271 L 842 275 L 843 276 L 843 281 L 844 282 L 844 287 L 845 288 L 845 294 L 846 295 L 846 302 L 847 303 L 847 311 L 848 312 L 848 330 L 845 333 L 843 333 L 834 324 L 834 323 L 830 319 L 830 318 L 827 315 L 827 314 L 823 310 L 823 309 L 820 306 L 820 305 L 817 302 L 817 301 L 814 298 L 814 297 L 810 293 L 810 292 L 806 288 L 806 287 L 802 283 L 802 282 L 798 278 L 798 277 L 792 271 L 792 270 L 785 263 L 785 262 L 769 246 L 769 245 L 768 244 L 767 244 L 754 231 L 753 231 L 747 225 L 746 225 L 742 221 L 741 221 L 737 217 L 732 217 L 731 218 L 731 219 L 730 220 L 730 223 L 731 224 L 731 226 L 732 227 L 732 228 L 733 229 L 733 230 L 734 231 L 734 232 L 735 233 L 735 234 L 736 235 L 736 236 L 737 237 L 737 238 L 739 240 L 739 241 L 740 242 L 740 243 L 742 245 L 742 246 L 744 248 L 744 249 L 747 252 L 747 253 L 749 255 L 749 256 L 751 258 L 751 259 L 753 261 L 753 262 L 756 265 L 756 266 L 758 268 L 758 269 L 760 271 L 760 272 L 762 274 L 762 275 L 765 278 L 765 279 L 767 281 L 767 282 L 770 285 L 770 286 L 772 288 L 772 289 L 774 291 L 774 292 L 777 295 L 777 296 L 779 298 L 779 299 L 781 301 L 781 302 L 783 304 L 783 305 L 786 308 L 786 309 L 788 311 L 788 312 L 790 314 L 790 315 L 791 316 L 791 317 L 793 319 L 793 320 L 795 322 L 795 323 L 797 325 L 797 326 L 798 327 L 798 328 L 800 330 L 800 331 L 801 332 L 801 333 L 803 335 L 803 336 L 804 337 L 804 338 L 805 339 L 805 340 L 807 342 L 807 343 L 808 344 L 808 345 L 809 346 L 809 347 L 810 348 L 810 349 L 811 350 L 811 351 L 812 352 L 812 354 L 813 355 L 813 356 L 814 357 L 814 358 L 815 359 L 815 361 L 816 362 L 816 363 L 817 364 L 817 366 L 818 367 L 818 369 L 819 370 L 819 372 L 820 373 L 820 375 L 821 376 L 821 378 L 822 379 L 822 383 L 823 384 L 823 389 L 824 390 L 824 415 L 823 416 L 823 420 L 822 421 L 822 424 L 821 425 L 821 427 L 820 428 L 820 429 L 819 430 L 819 432 L 818 433 L 818 434 L 817 435 L 817 436 L 816 437 L 816 438 L 815 439 L 815 440 L 814 441 L 814 442 L 812 444 L 812 445 L 811 446 L 811 447 L 809 449 L 809 450 L 806 453 L 806 454 L 802 458 L 802 459 L 783 478 L 782 478 L 778 482 L 777 482 L 775 484 L 773 484 L 771 482 L 771 459 L 770 458 L 770 447 L 769 446 L 769 440 L 768 439 L 768 434 L 767 433 L 767 429 L 766 428 L 766 425 L 765 424 L 765 421 L 764 420 L 764 417 L 763 416 L 763 414 L 762 413 L 762 411 L 761 410 L 761 408 L 760 407 L 760 405 L 759 404 L 759 402 L 758 401 L 758 400 L 757 399 L 757 397 L 756 396 L 756 395 L 755 394 L 755 393 L 754 392 L 754 390 L 753 389 L 753 388 L 752 387 L 752 386 L 751 385 L 751 384 L 750 383 L 750 382 L 749 381 L 749 380 L 748 379 L 748 378 L 746 376 L 746 375 L 745 374 L 745 373 L 743 371 L 743 370 L 741 368 L 741 367 L 737 363 L 737 362 L 728 353 L 727 353 L 724 350 L 723 350 L 722 349 L 721 349 L 720 348 L 718 348 L 717 349 L 715 349 L 713 351 L 713 355 L 714 356 L 714 358 L 715 359 L 715 360 L 716 361 L 716 362 L 717 363 L 717 364 L 718 365 L 718 366 L 719 367 L 719 368 L 721 370 L 721 371 L 722 372 L 722 373 L 723 374 L 723 375 L 724 376 L 724 377 L 725 378 L 725 379 L 726 380 L 726 382 L 727 383 L 727 384 L 728 385 L 728 386 L 729 387 L 729 389 L 730 390 L 730 392 L 731 393 L 731 395 L 732 396 L 732 398 L 733 399 L 733 401 L 734 402 L 734 405 L 735 406 L 735 408 L 736 409 L 736 413 L 737 414 L 737 418 L 738 419 L 738 424 L 739 425 L 739 433 L 740 434 L 740 466 L 739 467 L 739 473 L 738 474 L 738 478 L 737 479 L 737 482 L 736 483 L 736 485 L 735 486 L 735 489 L 734 490 L 734 491 L 733 492 L 733 494 L 732 495 L 732 496 L 731 497 L 731 498 L 730 499 L 730 500 L 729 501 L 729 502 L 728 503 L 728 504 L 726 506 L 726 507 L 723 510 L 723 511 L 720 514 L 719 514 L 715 518 L 714 518 L 712 520 L 711 520 L 708 523 L 707 523 L 706 524 L 705 524 L 703 526 L 702 526 L 700 528 L 699 528 L 697 530 L 696 530 L 695 531 L 694 531 L 692 533 L 691 533 L 689 535 L 688 535 L 687 536 L 686 536 L 684 538 L 683 538 L 682 539 L 681 539 L 679 541 L 678 541 L 677 542 L 676 542 L 674 544 L 673 544 L 672 545 L 671 545 L 669 547 L 668 547 L 667 548 L 666 548 L 665 549 L 664 549 L 663 550 L 662 550 L 660 552 L 659 552 L 658 553 L 657 553 L 656 554 L 651 554 L 650 553 L 650 552 L 649 551 L 650 550 L 650 542 L 651 541 L 651 532 L 652 531 L 652 501 L 651 500 L 651 491 L 650 490 L 650 483 L 649 482 L 649 478 L 648 477 L 648 473 L 647 472 L 647 469 L 646 468 L 646 464 L 645 463 L 645 461 L 644 460 L 644 457 L 643 456 L 643 454 L 642 453 L 642 451 L 641 450 L 641 447 L 640 446 L 640 445 L 639 444 L 639 442 L 638 441 L 638 439 L 637 438 L 637 437 L 636 436 L 636 435 L 635 434 L 635 432 L 634 431 L 634 430 L 633 429 L 633 428 L 632 427 L 632 426 L 631 425 L 631 424 L 629 422 L 629 421 L 628 420 L 628 419 L 625 416 L 621 416 L 618 419 L 618 421 L 617 422 L 617 430 L 618 431 L 618 436 L 619 437 L 619 441 L 620 442 L 620 447 L 621 448 L 621 457 L 622 458 L 622 476 L 623 477 L 623 489 L 622 490 L 622 504 L 621 505 L 621 512 L 620 513 L 620 519 L 619 520 L 619 525 L 618 526 L 618 530 L 617 531 L 617 534 L 616 535 L 616 538 L 615 539 L 615 542 L 614 543 L 614 546 L 613 547 L 613 549 L 612 550 L 612 552 L 611 553 L 611 555 L 610 556 L 610 557 L 609 558 L 609 560 L 608 561 L 608 562 L 607 563 L 607 565 L 606 566 L 606 567 L 605 568 L 605 569 L 604 570 L 604 571 L 603 572 L 603 573 L 602 574 L 602 575 L 601 576 L 601 577 L 600 578 L 600 579 L 599 580 L 599 581 L 598 582 L 598 583 L 596 585 L 596 586 L 594 588 L 594 589 L 591 592 L 591 593 L 588 596 L 588 597 L 584 601 L 584 602 L 579 607 L 579 608 L 565 622 L 564 622 L 563 623 L 562 623 L 561 624 L 548 624 L 547 625 L 542 625 L 541 626 L 536 626 L 535 627 L 531 627 L 530 628 L 525 628 L 524 629 L 515 629 L 514 630 L 507 630 L 506 629 L 497 629 L 496 628 L 492 628 L 491 627 L 487 627 L 486 626 L 483 626 L 482 625 L 478 625 L 477 624 L 471 624 L 470 623 L 460 623 L 459 622 L 458 622 L 457 621 L 456 621 L 446 611 L 446 610 L 440 604 L 440 603 L 437 600 L 437 599 L 434 596 L 434 595 L 431 592 L 431 591 L 429 589 L 429 588 L 427 586 L 427 585 L 426 584 L 426 583 L 424 581 L 424 580 L 423 579 L 423 578 L 422 577 L 422 576 L 421 575 L 421 574 L 420 573 L 420 572 L 419 571 L 419 570 L 418 569 L 418 568 L 417 567 L 417 566 L 416 565 L 416 564 L 415 563 L 415 561 L 414 560 L 414 559 L 413 558 L 413 556 L 412 555 L 412 553 L 411 552 L 411 550 L 410 549 L 410 547 L 409 546 L 409 544 L 408 543 L 408 540 L 407 539 L 407 536 L 406 535 L 406 532 L 405 531 L 405 527 L 404 526 L 404 522 L 403 521 L 403 516 L 402 515 L 402 507 L 401 506 L 401 493 L 400 492 L 400 473 L 401 472 L 401 457 L 402 456 L 402 447 L 403 446 L 403 440 L 404 439 L 404 434 L 405 433 L 405 427 L 406 426 L 406 421 L 405 420 L 405 418 L 403 416 L 399 416 L 398 417 L 397 417 L 396 418 L 396 419 L 393 422 L 393 423 L 392 424 L 392 425 L 391 426 L 391 427 L 390 428 L 390 429 L 389 430 L 389 431 L 388 432 L 388 433 L 387 434 L 387 436 L 386 437 L 386 438 L 385 439 L 385 441 L 384 442 L 384 443 L 383 444 L 383 446 L 382 447 L 382 449 L 381 450 L 381 452 L 380 453 L 380 456 L 379 457 L 379 459 L 378 460 L 378 463 L 377 464 L 377 467 L 376 468 L 376 471 L 375 472 L 375 476 L 374 477 L 374 482 L 373 483 L 373 489 L 372 490 L 372 499 L 371 500 L 371 528 L 372 529 L 372 538 L 373 539 L 373 547 L 374 548 L 374 552 L 372 554 L 368 554 L 367 553 L 366 553 L 365 552 L 364 552 L 363 551 L 362 551 L 361 550 L 360 550 L 359 549 L 358 549 L 357 548 L 356 548 L 354 546 L 353 546 L 352 545 L 351 545 L 350 544 L 349 544 L 347 542 L 346 542 L 345 541 L 344 541 L 342 539 L 341 539 L 340 538 L 339 538 L 338 537 L 337 537 L 335 535 L 334 535 L 333 534 L 332 534 L 330 532 L 329 532 L 328 531 L 327 531 L 325 529 L 324 529 L 322 527 L 321 527 L 320 526 L 319 526 L 317 524 L 316 524 L 314 522 L 313 522 L 311 520 L 310 520 L 306 516 L 305 516 L 299 510 L 299 509 L 296 506 L 296 505 L 295 504 L 295 503 L 293 501 L 293 500 L 292 499 L 292 498 L 291 497 L 291 496 L 290 495 L 290 493 L 289 492 L 289 490 L 288 489 L 288 487 L 287 486 L 287 484 L 286 483 L 286 480 L 285 479 L 285 475 L 284 474 L 284 468 L 283 467 L 283 435 L 284 434 L 284 426 L 285 425 L 285 419 L 286 418 L 286 414 L 287 413 L 287 409 L 288 408 L 288 405 L 289 404 L 289 402 L 290 401 L 290 398 L 291 397 L 291 395 L 292 394 L 292 392 L 293 391 L 293 390 L 294 389 L 294 387 L 295 386 L 295 385 L 296 384 L 296 382 L 297 381 L 297 380 L 298 379 L 298 378 L 299 377 L 299 376 L 300 375 L 300 373 L 302 371 L 302 370 L 303 369 L 303 368 L 304 367 L 304 366 L 305 365 L 305 364 L 307 362 L 307 361 L 308 360 L 308 359 L 309 358 L 309 356 L 310 355 L 310 352 L 309 351 L 309 350 L 308 350 L 307 349 L 301 349 L 300 350 L 299 350 L 297 352 L 296 352 L 286 362 L 286 363 L 283 366 L 283 367 L 281 369 L 281 370 L 279 372 L 279 373 L 277 375 L 277 376 L 276 377 L 276 378 L 275 379 L 275 380 L 273 382 L 273 383 L 272 384 L 272 385 L 271 386 L 271 387 L 270 388 L 270 389 L 269 390 L 269 392 L 268 393 L 268 394 L 267 395 L 267 396 L 266 397 L 266 399 L 265 400 L 265 401 L 264 402 L 264 404 L 263 405 L 263 407 L 262 408 L 262 410 L 261 411 L 261 413 L 260 414 L 260 417 L 259 418 L 259 420 L 258 421 L 258 424 L 257 425 L 257 428 L 256 429 L 256 433 L 255 434 L 255 438 L 254 439 L 254 445 L 253 446 L 253 454 L 252 455 L 252 482 L 250 484 L 248 484 L 246 482 L 245 482 L 240 477 L 239 477 L 221 459 L 221 458 L 217 454 L 217 453 L 215 451 L 215 450 L 213 448 L 213 447 L 211 445 L 211 444 L 210 443 L 210 442 L 208 440 L 208 439 L 207 438 L 207 437 L 206 436 L 206 435 L 205 434 L 205 433 L 204 432 L 204 431 L 203 430 L 203 428 L 202 427 L 202 426 L 201 425 L 201 423 L 200 422 L 200 419 L 199 418 L 199 411 L 198 410 L 198 405 L 199 404 L 199 394 L 200 393 L 200 387 L 201 386 L 201 383 L 202 382 L 202 378 L 203 377 L 203 375 L 204 374 L 204 372 L 205 371 L 205 369 L 206 368 L 206 366 L 207 365 L 207 363 L 208 362 L 208 360 L 209 359 L 209 358 L 210 357 L 210 356 L 211 355 L 211 353 L 212 352 L 212 351 L 213 350 L 213 349 L 214 348 L 214 347 L 215 346 L 215 345 L 216 344 L 216 343 L 217 342 L 217 341 L 219 339 L 219 338 L 220 337 L 220 336 L 221 335 L 221 334 L 222 333 L 222 332 L 224 330 L 224 329 L 225 328 L 225 327 L 227 325 L 227 324 L 229 322 L 229 321 L 231 319 L 231 318 L 232 317 L 232 316 L 234 314 L 234 313 L 236 311 L 236 310 L 239 307 L 239 306 L 241 304 L 241 303 L 243 301 L 243 300 L 245 298 L 245 297 L 247 295 L 247 294 L 249 292 L 249 291 L 252 288 L 252 287 L 254 285 L 254 284 L 256 282 L 256 281 L 258 279 L 258 278 L 261 275 L 261 274 L 263 272 L 263 271 L 265 269 L 265 268 L 267 266 L 267 265 L 269 263 L 269 262 L 272 259 L 272 258 L 274 256 L 274 255 L 276 253 L 276 252 L 278 250 L 278 249 L 280 247 L 280 246 L 281 245 L 281 244 L 283 242 L 283 241 L 285 239 L 285 238 L 286 237 L 286 236 L 287 235 L 287 234 L 289 232 L 289 231 L 290 230 L 290 229 L 291 228 L 291 227 L 292 226 L 292 225 L 293 224 L 293 219 L 291 217 L 287 217 L 285 219 L 284 219 L 280 223 L 279 223 L 273 229 L 272 229 L 264 237 L 263 237 L 248 252 L 248 253 L 238 263 L 238 264 L 232 270 L 232 271 L 226 277 L 226 278 L 222 282 L 222 283 L 218 287 L 218 288 L 213 293 L 213 294 L 210 297 L 210 298 L 206 302 L 206 303 L 203 306 L 203 307 L 200 310 L 200 311 L 196 315 L 196 316 L 193 319 L 193 320 L 189 324 L 189 325 L 186 328 L 186 329 L 182 333 L 179 333 L 178 332 L 178 331 L 177 330 L 177 327 L 176 326 L 176 301 L 177 300 L 177 294 L 178 293 L 178 288 L 179 287 L 179 284 L 180 283 L 180 279 L 181 278 L 181 275 L 182 274 L 182 271 L 183 270 L 183 267 L 184 266 L 184 263 L 185 262 L 185 259 L 186 258 L 186 256 L 187 255 L 187 252 L 188 251 L 188 249 L 189 248 L 189 245 L 190 244 L 190 242 L 191 241 L 191 239 L 192 238 L 192 236 L 193 235 L 193 233 L 194 232 L 194 231 L 195 230 L 195 228 L 196 227 L 196 225 L 197 224 L 197 223 L 198 222 L 198 220 L 199 219 L 199 218 L 200 217 L 200 216 L 201 215 L 201 213 L 202 212 L 202 211 L 203 210 L 203 209 L 204 208 L 204 207 L 205 206 L 205 205 L 206 204 L 206 203 L 207 202 L 207 201 L 208 200 L 208 199 L 209 198 L 209 197 L 211 195 L 211 194 L 212 193 L 212 192 L 213 191 L 213 190 L 214 189 L 214 188 L 215 187 L 215 186 L 217 184 L 217 183 L 218 182 L 218 181 L 219 180 L 219 179 L 220 178 L 220 177 L 221 176 L 221 175 L 222 174 L 222 173 L 223 172 L 223 171 L 224 170 L 224 169 L 225 168 L 225 167 L 226 166 L 226 161 L 225 160 Z " fill="{foreground_color}"/>
</svg>
