<svg xmlns="http://www.w3.org/2000/svg" width="64" height="64" viewBox="0 0 12 12"><link xmlns="" type="text/css" id="dark-mode" rel="stylesheet" href=""/><style xmlns="" type="text/css" id="dark-mode-custom-style"/><path style="fill:none;stroke:#fff;stroke-width:.60000002;stroke-linecap:round;stroke-linejoin:round;stroke-miterlimit:10;stroke-dasharray:none;stroke-opacity:1" d="M3.501 9.303c0-.692-.558-1.25-1.25-1.25a1.25 1.25 0 1 0 1.25 1.25zm7.498 0c0-.692-.559-1.25-1.25-1.25-.692 0-1.25.558-1.25 1.25a1.25 1.25 0 1 0 2.5 0zM7.25 2.697a1.25 1.25 0 1 0-2.5 0c0 .692.559 1.25 1.25 1.25s1.25-.558 1.25-1.25zm0 4.265a1.25 1.25 0 1 0-2.5 0 1.25 1.25 0 0 0 2.5 0zm0 0"/></svg>